<?xml version="1.0" standalone="no"?>
<!DOCTYPE svg PUBLIC "-//W3C//DTD SVG 20010904//EN"
 "http://www.w3.org/TR/2001/REC-SVG-20010904/DTD/svg10.dtd">
<svg version="1.0" xmlns="http://www.w3.org/2000/svg"
 width="836.000000pt" height="836.000000pt" viewBox="0 0 836.000000 836.000000"
 preserveAspectRatio="xMidYMid meet">
<metadata>
Created by potrace 1.14, written by Peter Selinger 2001-2017
</metadata>
<g transform="translate(0.000000,836.000000) scale(0.100000,-0.100000)"
fill="#000000" stroke="none">
<path d="M1146 7071 c-20 -7 -36 -18 -36 -22 0 -5 -6 -9 -13 -9 -7 0 -24 -20
-37 -45 l-25 -45 0 -434 0 -433 -146 0 c-80 0 -151 -3 -158 -7 -6 -4 -16 -4
-23 0 -6 4 -96 7 -199 6 -204 -1 -238 -8 -292 -60 -63 -59 -60 -17 -62 -932
-1 -760 0 -839 15 -881 21 -57 52 -92 105 -118 37 -18 65 -19 392 -19 194 -1
356 -3 361 -5 4 -3 7 -171 7 -374 l0 -368 -345 -1 c-304 0 -349 -3 -381 -18
-48 -23 -94 -73 -109 -118 -8 -28 -11 -245 -11 -827 0 -766 0 -790 19 -828 23
-44 53 -74 101 -98 33 -16 248 -17 3870 -17 3504 0 3839 2 3874 16 20 9 50 30
66 47 59 61 57 42 57 911 l-1 796 -30 43 c-17 23 -39 47 -50 53 -11 6 -22 14
-25 18 -13 17 -102 21 -425 22 l-340 1 -3 295 c-3 334 -3 443 2 448 2 2 156 4
342 4 215 0 348 4 364 11 47 20 90 58 112 100 l22 42 0 840 c-1 462 -4 853 -7
869 -14 64 -82 129 -149 142 -46 8 -203 9 -216 0 -7 -4 -17 -4 -23 0 -7 4
-110 7 -231 6 l-219 0 0 196 c0 109 0 204 -1 212 0 8 1 44 2 80 1 36 0 139 -2
230 -3 154 -5 167 -27 200 -49 72 -82 83 -248 81 -51 0 -104 -1 -118 -1 -14 0
-50 0 -80 0 -30 0 -66 0 -80 0 -14 0 -50 0 -80 0 -30 0 -65 0 -77 0 -13 0 -45
1 -73 3 -27 1 -60 -1 -73 -5 -13 -4 -21 -5 -19 0 3 4 -10 7 -28 7 -18 0 -31
-3 -28 -7 2 -5 -6 -4 -19 0 -29 10 -139 9 -155 -1 -7 -5 -13 -4 -13 0 0 12
-47 8 -85 -7 -37 -14 -84 -57 -98 -90 -6 -16 -11 -180 -11 -460 l-2 -435 -99
-3 c-55 -1 -107 -2 -115 -3 -8 0 -98 1 -200 2 -102 0 -189 0 -195 -1 -5 -1
-14 -2 -20 -1 -8 2 -492 2 -550 0 -5 0 -93 1 -195 2 -102 0 -189 0 -195 -1 -5
-1 -14 -2 -20 -1 -8 2 -492 2 -550 0 -5 0 -93 1 -195 2 -102 0 -189 0 -195 -1
-5 -1 -14 -2 -20 -1 -7 2 -486 2 -550 0 -5 0 -128 1 -272 2 l-261 1 0 430 -1
431 -23 45 c-25 48 -69 82 -116 89 -54 8 -152 8 -152 0 0 -5 -5 -5 -12 -1 -17
11 -138 11 -138 1 0 -5 -5 -5 -12 -1 -17 11 -138 11 -138 1 0 -5 -5 -5 -12 -1
-17 11 -168 11 -168 0 0 -5 -6 -4 -12 1 -7 5 -44 7 -83 6 -86 -4 -79 -4 -145
0 -30 1 -61 -1 -67 -6 -7 -5 -13 -6 -13 -1 0 14 -73 11 -114 -5z m4832 -3006
c8 -7 10 -723 2 -734 -3 -4 -820 -7 -1817 -7 l-1811 0 0 369 c-1 351 0 368 18
375 24 9 3599 6 3608 -3z"/>
</g>
</svg>
