<?xml version="1.0" encoding="utf-8"?>
<!-- Generator: Adobe Illustrator 27.0.1, SVG Export Plug-In . SVG Version: 6.00 Build 0)  -->
<svg version="1.1" id="Layer_1" xmlns="http://www.w3.org/2000/svg" xmlns:xlink="http://www.w3.org/1999/xlink" x="0px" y="0px"
	 viewBox="0 0 249 81.6" style="enable-background:new 0 0 249 81.6;" xml:space="preserve">
<style type="text/css">
	.st0{fill:none;}
	.st1{enable-background:new    ;}
	.st2{fill:#FFC427;}
	.st3{fill:#231F20;}
</style>
<rect x="2.4" y="5.6" class="st0" width="262.6" height="94.9"/>
<g class="st1">
	<path class="st2" d="M32.2,61.1V36c0-2-0.5-3.5-1.4-4.5c-0.9-0.9-2.3-1.4-4.1-1.4c-2.8,0-5.5,0.9-8.2,2.5v28.5h-11V5.6h11v20.6
		c4.3-3,8.8-4.6,13.5-4.6c3.5,0,6.3,1,8.2,2.9c1.9,1.9,2.9,4.7,2.9,8.2v28.3H32.2z"/>
	<path class="st2" d="M75.5,61.1l-0.9-3.4c-1.6,1.4-3.3,2.5-5.4,3.3c-2,0.8-4,1.2-5.9,1.2c-3.7,0-6.7-1-8.9-3.2
		c-2.2-2.1-3.3-4.9-3.3-8.4c0-2.4,0.6-4.5,1.8-6.3c1.2-1.8,2.9-3.3,5.2-4.3s4.9-1.6,7.9-1.6c2.4,0,5,0.3,8,1v-3.8
		c0-2.3-0.5-3.9-1.4-4.7c-1-0.8-2.7-1.3-5.2-1.3c-4.1,0-8.6,0.8-13.6,2.3v-7.3c1.8-0.9,4.2-1.7,7-2.3c2.8-0.6,5.6-0.9,8.5-0.9
		c5.1,0,8.9,1,11.3,3.1c2.4,2.1,3.6,5.3,3.6,9.8v26.5H75.5z M66.4,55c1.2,0,2.5-0.3,3.9-0.8c1.3-0.5,2.6-1.3,3.7-2.2v-6.5
		c-2.2-0.3-4.2-0.5-5.9-0.5c-4.3,0-6.5,1.8-6.5,5.2c0,1.6,0.4,2.8,1.3,3.6C63.7,54.6,64.9,55,66.4,55z"/>
	<path class="st2" d="M111.4,60.4c-2.1,0.8-4.4,1.3-6.8,1.3c-6.8,0-10.1-3.8-10.1-11.3V5.6h11v43.8c0,1.4,0.2,2.4,0.7,3
		c0.5,0.6,1.3,0.9,2.4,0.9c0.7,0,1.6-0.1,2.9-0.2V60.4z"/>
</g>
<g class="st1">
	<path class="st3" d="M140.8,61.1l-0.9-3.4c-1.6,1.4-3.3,2.5-5.4,3.3c-2,0.8-4,1.2-5.9,1.2c-3.7,0-6.7-1-8.9-3.2
		c-2.2-2.1-3.3-4.9-3.3-8.4c0-2.4,0.6-4.5,1.8-6.3c1.2-1.8,2.9-3.3,5.2-4.3s4.9-1.6,8-1.6c2.4,0,5,0.3,8,1v-3.8
		c0-2.3-0.5-3.9-1.4-4.7c-1-0.8-2.7-1.3-5.2-1.3c-4.1,0-8.6,0.8-13.6,2.3v-7.3c1.8-0.9,4.2-1.7,7-2.3c2.8-0.6,5.6-0.9,8.5-0.9
		c5.1,0,8.9,1,11.3,3.1c2.4,2.1,3.6,5.3,3.6,9.8v26.5H140.8z M131.7,55c1.2,0,2.5-0.3,3.9-0.8c1.3-0.5,2.6-1.3,3.7-2.2v-6.5
		c-2.2-0.3-4.2-0.5-5.9-0.5c-4.3,0-6.5,1.8-6.5,5.2c0,1.6,0.4,2.8,1.3,3.6C129,54.6,130.2,55,131.7,55z"/>
	<path class="st3" d="M159.8,76.6V22.8h9l0.9,3.6c1.5-1.5,3.3-2.6,5.4-3.5c2.1-0.8,4.3-1.3,6.5-1.3c4.8,0,8.7,1.8,11.5,5.3
		c2.8,3.6,4.2,8.4,4.2,14.4c0,4-0.7,7.5-2,10.6c-1.3,3.1-3.2,5.5-5.6,7.3c-2.5,1.8-5.3,2.7-8.5,2.7c-2.1,0-4-0.3-5.9-1
		c-1.8-0.6-3.4-1.5-4.7-2.7v18.3H159.8z M178.1,29.9c-2.6,0-5.1,0.7-7.3,2v19.7c2.2,1.4,4.7,2,7.3,2c2.8,0,4.9-0.9,6.2-2.9
		c1.3-1.9,2-4.9,2-9c0-4.1-0.7-7.2-2-9.1C183,30.9,180.9,29.9,178.1,29.9z"/>
	<path class="st3" d="M205.9,76.6V22.8h9l0.9,3.6c1.5-1.5,3.3-2.6,5.4-3.5c2.1-0.8,4.3-1.3,6.5-1.3c4.8,0,8.7,1.8,11.5,5.3
		c2.8,3.6,4.2,8.4,4.2,14.4c0,4-0.7,7.5-2,10.6c-1.3,3.1-3.2,5.5-5.6,7.3c-2.5,1.8-5.3,2.7-8.5,2.7c-2.1,0-4-0.3-5.8-1
		c-1.9-0.6-3.4-1.5-4.7-2.7v18.3H205.9z M224.2,29.9c-2.6,0-5.1,0.7-7.3,2v19.7c2.2,1.4,4.6,2,7.3,2c2.8,0,4.9-0.9,6.2-2.9
		c1.3-1.9,2-4.9,2-9c0-4.1-0.7-7.2-2-9.1C229.1,30.9,227.1,29.9,224.2,29.9z"/>
</g>
</svg>

