<?xml version="1.0" encoding="utf-8"?>
<!-- Generator: Adobe Illustrator 27.0.1, SVG Export Plug-In . SVG Version: 6.00 Build 0)  -->
<svg xmlns="http://www.w3.org/2000/svg" xmlns:xlink="http://www.w3.org/1999/xlink" version="1.1" id="Layer_1" x="0px" y="0px" viewBox="0 0 552 186.4" style="enable-background:new 0 0 552 186.4;" xml:space="preserve">
<style type="text/css">
	.st0-text{fill:#4E5150;}
</style>
<path class="st0-text" d="M464.1,182.7V48h9.5l0.9,10.6c5.8-4.7,11.5-8.1,17-10.3s11.2-3.2,17-3.2c12.3,0,22,4.4,29.1,13.2  s10.6,20.9,10.6,36.2c0,15.6-3.7,28-11.2,37.2s-17.5,13.9-30.2,13.9c-11.7,0-22.3-4.3-31.9-12.9v50H464.1z M506.5,55.1  c-10.5,0-21,4.1-31.5,12.2V123c5.2,4.4,10.3,7.7,15.2,9.8s10.1,3.1,15.6,3.1c10.4,0,18.2-3.4,23.5-10.2s7.9-16.9,7.9-30.3  C537.1,68.5,526.9,55.1,506.5,55.1z"/>
<path class="st0-text" d="M355.3,182.7V48h9.5l0.9,10.6c5.8-4.7,11.5-8.1,17-10.3s11.2-3.2,17-3.2c12.3,0,22,4.4,29.1,13.2  s10.6,20.9,10.6,36.2c0,15.6-3.7,28-11.2,37.2s-17.5,13.9-30.2,13.9c-11.7,0-22.3-4.3-31.9-12.9v50H355.3z M397.6,55.1  c-10.5,0-21,4.1-31.5,12.2V123c5.2,4.4,10.3,7.7,15.2,9.8s10.1,3.1,15.6,3.1c10.4,0,18.2-3.4,23.5-10.2s7.9-16.9,7.9-30.3  C428.2,68.5,418,55.1,397.6,55.1z"/>
<path class="st0-text" d="M316.3,143.6l-0.9-11c-10.9,8.7-22.3,13.1-34.2,13.1c-8.7,0-15.7-2.5-20.8-7.5c-5.1-5-7.7-11.7-7.7-20  c0-9.2,3.2-16.5,9.5-21.8s14.9-8,25.8-8c8.5,0,17.5,1.5,27.2,4.4v-16c0-7.7-1.8-13.3-5.5-16.6c-3.7-3.4-9.8-5-18.2-5  c-10.1,0-21,2-32.5,6.1v-8.9c4.8-2.2,10.3-3.9,16.3-5.1c6.1-1.3,12-1.9,17.9-1.9c11.1,0,19.4,2.3,24.8,7c5.4,4.7,8.1,11.8,8.1,21.3  v70.1h-9.8L316.3,143.6L316.3,143.6z M282.7,135.8c4.8,0,10-1,15.6-2.9c5.6-2,11.2-4.7,16.9-8.3v-23.8c-8.5-2.3-16.7-3.4-24.7-3.4  c-17.7,0-26.6,6.8-26.6,20.5c0,5.8,1.6,10.3,4.8,13.3C271.8,134.3,276.5,135.8,282.7,135.8z"/>
<path class="st0-text" d="M237.1,142.8c-3.3,0.9-6.5,1.3-9.7,1.3c-5.1,0-9-1.5-11.9-4.5c-2.8-3-4.3-7.1-4.3-12.4V3H222v124.1  c0,2.8,0.5,4.8,1.6,5.9s3,1.7,5.8,1.7c2,0,4.6-0.2,7.6-0.6v8.7L237.1,142.8L237.1,142.8z"/>
<path class="st0-text" d="M172.3,143.6l-0.9-11c-10.9,8.7-22.3,13.1-34.2,13.1c-8.7,0-15.7-2.5-20.8-7.5c-5.1-5-7.7-11.7-7.7-20  c0-9.2,3.2-16.5,9.5-21.8s14.9-8,25.8-8c8.5,0,17.5,1.5,27.2,4.4v-16c0-7.7-1.8-13.3-5.5-16.6c-3.7-3.4-9.8-5-18.2-5  c-10.1,0-21,2-32.5,6.1v-8.9c4.8-2.2,10.3-3.9,16.3-5.1c6.1-1.3,12-1.9,17.9-1.9c11.1,0,19.4,2.3,24.8,7s8.1,11.8,8.1,21.3v70.1  h-9.8L172.3,143.6L172.3,143.6z M138.7,135.8c4.8,0,10-1,15.6-2.9c5.6-2,11.2-4.7,16.9-8.3v-23.8c-8.5-2.3-16.7-3.4-24.7-3.4  c-17.7,0-26.6,6.8-26.6,20.5c0,5.8,1.6,10.3,4.8,13.3C127.8,134.3,132.5,135.8,138.7,135.8z"/>
<path class="st0-text" d="M74.6,143.6v-65c0-8.2-1.6-14.2-4.8-18c-3.2-3.7-8.2-5.6-15.2-5.6c-12.7,0-25,4.1-37.1,12.2v76.4H6.7V3h10.8  v55.9c6.2-4.3,12.7-7.7,19.5-10.1c6.8-2.4,13.4-3.6,19.9-3.6c9.2,0,16.3,2.4,21.2,7.3c4.9,4.9,7.3,12.1,7.3,21.6v69.5H74.6z"/>
</svg>