<svg xmlns="http://www.w3.org/2000/svg" xmlns:xlink="http://www.w3.org/1999/xlink" width="200px" height="49px" viewBox="0 0 200 49" version="1.1">
  <g id="surface1">
    <path style=" stroke:none;fill-rule:evenodd;fill:#4E5150;" d="M 7.453125 39.945312 L 0 39.945312 L 0 0 L 7.453125 0 L 7.453125 12.941406 L 7.609375 12.941406 C 7.917969 12.511719 8.25 12.105469 8.613281 11.722656 C 8.789062 11.539062 8.96875 11.359375 9.15625 11.183594 C 9.757812 10.617188 10.441406 10.109375 11.203125 9.667969 C 11.96875 9.222656 12.792969 8.867188 13.679688 8.601562 C 14.359375 8.398438 15.0625 8.273438 15.769531 8.230469 C 16.03125 8.210938 16.292969 8.203125 16.554688 8.203125 C 18.363281 8.203125 19.996094 8.523438 21.449219 9.160156 C 22.90625 9.800781 24.15625 10.6875 25.203125 11.824219 C 26.039062 12.738281 26.71875 13.785156 27.214844 14.921875 C 27.367188 15.257812 27.5 15.601562 27.625 15.953125 C 28.019531 17.09375 28.277344 18.277344 28.386719 19.480469 C 28.449219 20.085938 28.476562 20.695312 28.476562 21.304688 L 28.476562 39.945312 L 21.023438 39.945312 L 21.023438 22.261719 C 21.027344 21.585938 20.929688 20.914062 20.738281 20.265625 C 20.667969 20.039062 20.585938 19.816406 20.492188 19.601562 C 20.136719 18.785156 19.648438 18.0625 19.027344 17.441406 C 18.40625 16.820312 17.6875 16.332031 16.871094 15.976562 C 16.054688 15.625 15.1875 15.445312 14.265625 15.445312 C 13.589844 15.441406 12.914062 15.539062 12.269531 15.734375 C 12.042969 15.800781 11.820312 15.882812 11.601562 15.976562 C 10.785156 16.332031 10.070312 16.820312 9.449219 17.441406 C 8.828125 18.0625 8.339844 18.785156 7.984375 19.601562 C 7.664062 20.34375 7.484375 21.140625 7.457031 21.949219 C 7.453125 22.054688 7.453125 22.160156 7.453125 22.261719 Z M 7.453125 39.945312 " />
    <path style=" stroke:none;fill-rule:evenodd;fill:#4E5150;" d="M 59.71875 39.945312 L 59.71875 35.417969 L 59.613281 35.417969 C 59.140625 36.046875 58.621094 36.636719 58.0625 37.191406 C 57.96875 37.285156 57.875 37.378906 57.777344 37.46875 C 57.085938 38.125 56.3125 38.703125 55.460938 39.199219 C 54.746094 39.613281 53.992188 39.957031 53.210938 40.21875 C 53.019531 40.28125 52.832031 40.34375 52.640625 40.398438 C 51.609375 40.699219 50.492188 40.851562 49.285156 40.851562 C 47.15625 40.851562 45.152344 40.441406 43.273438 39.625 C 41.390625 38.808594 39.75 37.664062 38.347656 36.191406 C 36.972656 34.734375 35.871094 33.035156 35.101562 31.183594 C 35.074219 31.121094 35.046875 31.058594 35.023438 30.996094 C 34.332031 29.289062 33.925781 27.480469 33.832031 25.640625 C 33.808594 25.261719 33.796875 24.878906 33.796875 24.5 C 33.789062 22.953125 33.984375 21.414062 34.375 19.917969 C 34.550781 19.265625 34.765625 18.625 35.023438 18.003906 C 35.675781 16.378906 36.585938 14.875 37.714844 13.539062 C 37.917969 13.296875 38.128906 13.0625 38.347656 12.835938 C 39.75 11.378906 41.390625 10.242188 43.273438 9.425781 C 45.152344 8.609375 47.15625 8.203125 49.285156 8.203125 C 50.007812 8.199219 50.726562 8.253906 51.4375 8.367188 C 51.84375 8.433594 52.246094 8.519531 52.640625 8.628906 C 53.667969 8.914062 54.609375 9.304688 55.460938 9.800781 C 56.3125 10.296875 57.085938 10.875 57.777344 11.53125 C 58.324219 12.046875 58.832031 12.601562 59.304688 13.183594 C 59.410156 13.316406 59.511719 13.449219 59.613281 13.582031 L 59.71875 13.582031 L 59.71875 9.109375 L 67.117188 9.109375 L 67.117188 39.945312 Z M 59.71875 24.5 C 59.71875 23.257812 59.488281 22.085938 59.027344 20.984375 C 58.566406 19.882812 57.925781 18.925781 57.109375 18.109375 C 56.296875 17.292969 55.335938 16.644531 54.238281 16.164062 C 53.136719 15.683594 51.949219 15.445312 50.671875 15.445312 C 49.429688 15.445312 48.257812 15.683594 47.15625 16.164062 C 46.058594 16.644531 45.101562 17.292969 44.285156 18.109375 C 43.46875 18.925781 42.820312 19.882812 42.339844 20.984375 C 41.863281 22.085938 41.621094 23.257812 41.621094 24.5 C 41.621094 25.742188 41.863281 26.921875 42.339844 28.042969 C 42.789062 29.109375 43.4375 30.082031 44.246094 30.90625 C 44.257812 30.917969 44.269531 30.933594 44.285156 30.945312 C 45.101562 31.761719 46.058594 32.410156 47.15625 32.886719 C 48.257812 33.367188 49.429688 33.609375 50.671875 33.609375 C 51.667969 33.613281 52.660156 33.453125 53.605469 33.132812 C 53.820312 33.0625 54.03125 32.980469 54.238281 32.886719 C 55.335938 32.410156 56.296875 31.761719 57.109375 30.945312 C 57.925781 30.128906 58.566406 29.160156 59.027344 28.042969 C 59.488281 26.921875 59.71875 25.742188 59.71875 24.5 Z M 59.71875 24.5 " />
    <path style=" stroke:none;fill-rule:evenodd;fill:#4E5150;" d="M 73.503906 39.945312 L 73.503906 0 L 80.957031 0 L 80.957031 39.945312 Z M 73.503906 39.945312 " />
    <path style=" stroke:none;fill-rule:evenodd;fill:#4E5150;" d="M 112.199219 39.945312 L 112.199219 35.417969 L 112.09375 35.417969 C 111.621094 36.046875 111.101562 36.636719 110.542969 37.191406 C 110.449219 37.285156 110.355469 37.378906 110.257812 37.46875 C 109.566406 38.125 108.792969 38.703125 107.941406 39.199219 C 107.226562 39.613281 106.472656 39.957031 105.691406 40.21875 C 105.5 40.28125 105.3125 40.34375 105.121094 40.398438 C 104.09375 40.699219 102.972656 40.851562 101.769531 40.851562 C 99.640625 40.851562 97.632812 40.441406 95.753906 39.625 C 93.871094 38.808594 92.230469 37.664062 90.828125 36.191406 C 89.453125 34.734375 88.351562 33.035156 87.582031 31.183594 C 87.554688 31.121094 87.527344 31.058594 87.503906 30.996094 C 86.8125 29.289062 86.410156 27.480469 86.3125 25.640625 C 86.289062 25.261719 86.277344 24.878906 86.277344 24.5 C 86.269531 22.953125 86.464844 21.414062 86.859375 19.917969 C 87.03125 19.265625 87.246094 18.625 87.503906 18.003906 C 88.15625 16.378906 89.066406 14.875 90.195312 13.539062 C 90.398438 13.296875 90.609375 13.0625 90.828125 12.835938 C 92.230469 11.378906 93.871094 10.242188 95.753906 9.425781 C 97.632812 8.609375 99.640625 8.203125 101.769531 8.203125 C 102.488281 8.199219 103.207031 8.253906 103.917969 8.367188 C 104.324219 8.433594 104.726562 8.519531 105.121094 8.628906 C 106.148438 8.914062 107.089844 9.304688 107.941406 9.800781 C 108.792969 10.296875 109.566406 10.875 110.257812 11.53125 C 110.804688 12.046875 111.3125 12.601562 111.785156 13.183594 C 111.890625 13.316406 111.992188 13.449219 112.09375 13.582031 L 112.199219 13.582031 L 112.199219 9.109375 L 119.597656 9.109375 L 119.597656 39.945312 Z M 112.199219 24.5 C 112.199219 23.257812 111.96875 22.085938 111.507812 20.984375 C 111.046875 19.882812 110.40625 18.925781 109.59375 18.109375 C 108.777344 17.292969 107.816406 16.644531 106.71875 16.164062 C 105.617188 15.683594 104.429688 15.445312 103.152344 15.445312 C 101.910156 15.445312 100.738281 15.683594 99.640625 16.164062 C 98.539062 16.644531 97.582031 17.292969 96.765625 18.109375 C 95.949219 18.925781 95.300781 19.882812 94.820312 20.984375 C 94.34375 22.085938 94.101562 23.257812 94.101562 24.5 C 94.101562 25.742188 94.34375 26.921875 94.820312 28.042969 C 95.269531 29.109375 95.917969 30.082031 96.726562 30.90625 C 96.738281 30.917969 96.75 30.933594 96.765625 30.945312 C 97.582031 31.761719 98.539062 32.410156 99.640625 32.886719 C 100.738281 33.367188 101.910156 33.609375 103.152344 33.609375 C 104.148438 33.613281 105.140625 33.453125 106.085938 33.132812 C 106.300781 33.0625 106.511719 32.980469 106.71875 32.886719 C 107.816406 32.410156 108.777344 31.761719 109.59375 30.945312 C 110.40625 30.128906 111.046875 29.160156 111.507812 28.042969 C 111.96875 26.921875 112.199219 25.742188 112.199219 24.5 Z M 112.199219 24.5 " />
    <path style=" stroke:none;fill-rule:evenodd;fill:#4E5150;" d="M 132.851562 9.109375 L 132.851562 14.273438 L 132.957031 14.273438 C 133.527344 13.457031 134.164062 12.675781 134.875 11.929688 C 135.582031 11.183594 136.390625 10.535156 137.296875 9.988281 C 138.082031 9.511719 138.921875 9.125 139.792969 8.839844 C 139.964844 8.785156 140.132812 8.730469 140.304688 8.679688 C 141.402344 8.363281 142.59375 8.203125 143.871094 8.203125 C 146 8.203125 148.003906 8.609375 149.882812 9.425781 C 151.765625 10.242188 153.40625 11.390625 154.808594 12.863281 C 156.183594 14.320312 157.285156 16.015625 158.058594 17.871094 C 158.082031 17.929688 158.109375 17.992188 158.132812 18.054688 C 158.828125 19.761719 159.230469 21.574219 159.324219 23.414062 C 159.347656 23.792969 159.359375 24.171875 159.359375 24.554688 C 159.367188 26.097656 159.171875 27.640625 158.78125 29.132812 C 158.605469 29.785156 158.390625 30.425781 158.132812 31.050781 C 157.480469 32.671875 156.570312 34.179688 155.441406 35.515625 C 155.238281 35.753906 155.027344 35.988281 154.808594 36.21875 C 153.40625 37.671875 151.765625 38.808594 149.882812 39.625 C 148.003906 40.441406 146 40.851562 143.871094 40.851562 C 142.933594 40.855469 141.996094 40.769531 141.078125 40.585938 C 139.8125 40.332031 138.683594 39.886719 137.695312 39.253906 C 136.539062 38.523438 135.476562 37.648438 134.539062 36.652344 C 134.1875 36.277344 133.855469 35.882812 133.542969 35.472656 L 133.4375 35.472656 L 133.4375 49.054688 L 125.984375 49.054688 L 125.984375 9.109375 Z M 133.4375 24.554688 C 133.4375 25.796875 133.675781 26.96875 134.15625 28.070312 C 134.632812 29.167969 135.28125 30.128906 136.097656 30.945312 C 136.914062 31.761719 137.871094 32.410156 138.972656 32.886719 C 140.074219 33.367188 141.242188 33.609375 142.484375 33.609375 C 143.484375 33.613281 144.476562 33.453125 145.421875 33.132812 C 145.632812 33.0625 145.84375 32.980469 146.050781 32.886719 C 147.152344 32.410156 148.109375 31.761719 148.925781 30.945312 C 149.742188 30.128906 150.378906 29.167969 150.84375 28.070312 C 151.304688 26.96875 151.535156 25.796875 151.535156 24.554688 C 151.535156 23.308594 151.304688 22.140625 150.84375 21.039062 C 150.378906 19.9375 149.742188 18.96875 148.925781 18.136719 C 148.109375 17.300781 147.152344 16.644531 146.050781 16.164062 C 144.953125 15.683594 143.761719 15.445312 142.484375 15.445312 C 141.242188 15.445312 140.074219 15.683594 138.972656 16.164062 C 137.871094 16.644531 136.914062 17.300781 136.097656 18.136719 C 135.28125 18.96875 134.632812 19.9375 134.15625 21.039062 C 133.675781 22.140625 133.4375 23.308594 133.4375 24.554688 Z M 133.4375 24.554688 " />
    <path style=" stroke:none;fill-rule:evenodd;fill:#4E5150;" d="M 171.546875 9.109375 L 171.546875 14.273438 L 171.652344 14.273438 C 172.222656 13.457031 172.859375 12.675781 173.570312 11.929688 C 174.277344 11.183594 175.085938 10.535156 175.992188 9.988281 C 176.777344 9.511719 177.617188 9.125 178.488281 8.839844 C 178.660156 8.785156 178.828125 8.730469 179 8.679688 C 180.097656 8.363281 181.285156 8.203125 182.566406 8.203125 C 184.695312 8.203125 186.699219 8.609375 188.578125 9.425781 C 190.460938 10.242188 192.101562 11.390625 193.503906 12.863281 C 194.878906 14.320312 195.980469 16.015625 196.75 17.871094 C 196.777344 17.929688 196.804688 17.992188 196.828125 18.054688 C 197.519531 19.761719 197.925781 21.574219 198.019531 23.414062 C 198.042969 23.792969 198.054688 24.171875 198.054688 24.554688 C 198.0625 26.097656 197.867188 27.640625 197.476562 29.132812 C 197.300781 29.785156 197.085938 30.425781 196.828125 31.050781 C 196.175781 32.671875 195.265625 34.179688 194.136719 35.515625 C 193.933594 35.753906 193.722656 35.988281 193.503906 36.21875 C 192.101562 37.671875 190.460938 38.808594 188.578125 39.625 C 186.699219 40.441406 184.695312 40.851562 182.566406 40.851562 C 181.628906 40.855469 180.691406 40.769531 179.773438 40.585938 C 178.507812 40.332031 177.378906 39.886719 176.390625 39.253906 C 175.234375 38.523438 174.171875 37.648438 173.234375 36.652344 C 172.882812 36.277344 172.550781 35.882812 172.238281 35.472656 L 172.132812 35.472656 L 172.132812 49.054688 L 164.679688 49.054688 L 164.679688 9.109375 Z M 172.132812 24.554688 C 172.132812 25.796875 172.371094 26.96875 172.851562 28.070312 C 173.328125 29.167969 173.976562 30.128906 174.792969 30.945312 C 175.609375 31.761719 176.566406 32.410156 177.667969 32.886719 C 178.769531 33.367188 179.9375 33.609375 181.179688 33.609375 C 182.179688 33.613281 183.171875 33.453125 184.117188 33.132812 C 184.328125 33.0625 184.539062 32.980469 184.746094 32.886719 C 185.847656 32.410156 186.804688 31.761719 187.621094 30.945312 C 188.4375 30.128906 189.074219 29.167969 189.535156 28.070312 C 190 26.96875 190.230469 25.796875 190.230469 24.554688 C 190.230469 23.308594 190 22.140625 189.535156 21.039062 C 189.074219 19.9375 188.4375 18.96875 187.621094 18.136719 C 186.804688 17.300781 185.847656 16.644531 184.746094 16.164062 C 183.648438 15.683594 182.457031 15.445312 181.179688 15.445312 C 179.9375 15.445312 178.769531 15.683594 177.667969 16.164062 C 176.566406 16.644531 175.609375 17.300781 174.792969 18.136719 C 173.976562 18.96875 173.328125 19.9375 172.851562 21.039062 C 172.371094 22.140625 172.132812 23.308594 172.132812 24.554688 Z M 172.132812 24.554688 " />
  </g>
</svg>