<?xml version="1.0" encoding="utf-8"?>
<svg xmlns="http://www.w3.org/2000/svg" xmlns:xlink="http://www.w3.org/1999/xlink" version="1.1" id="Group_1_00000148638724174097919330000000146508021379227062_" x="0px" y="0px" style="enable-background:new 0 0 436 443;" xml:space="preserve" viewBox="84 133 263 185.28">
<style type="text/css">
	.st0{fill-rule:evenodd;clip-rule:evenodd;fill:#FFC423;}
	.st1{fill:none;stroke:#000000;stroke-width:4;stroke-miterlimit:100;}
	.st2{fill-rule:evenodd;clip-rule:evenodd;fill:#1A1A1A;}
</style>
<g id="Rectangle_3">
	<g>
		<path class="st0" d="M150,135h-32c-1.66,0-3,1.34-3,3v162c0,1.66,1.34,3,3,3h32c1.66,0,3-1.34,3-3V138    C153,136.34,151.66,135,150,135z"/>
	</g>
	<g>
		<path class="st1" d="M150,135h-32c-1.66,0-3,1.34-3,3v162c0,1.66,1.34,3,3,3h32c1.66,0,3-1.34,3-3V138    C153,136.34,151.66,135,150,135z"/>
	</g>
</g>
<g id="Rectangle_3_00000122708717415471067630000014050778579348335795_">
	<g>
		<path class="st0" d="M313,135h-32c-1.66,0-3,1.34-3,3v162c0,1.66,1.34,3,3,3h32c1.66,0,3-1.34,3-3V138    C316,136.34,314.66,135,313,135z"/>
	</g>
	<g>
		<path class="st1" d="M313,135h-32c-1.66,0-3,1.34-3,3v162c0,1.66,1.34,3,3,3h32c1.66,0,3-1.34,3-3V138    C316,136.34,314.66,135,313,135z"/>
	</g>
</g>
<g id="Rectangle_2">
	<g>
		<path class="st0" d="M340,168H90c-2.21,0-4,1.79-4,4v53c0,2.21,1.79,4,4,4h250c2.21,0,4-1.79,4-4v-53    C344,169.79,342.21,168,340,168z"/>
	</g>
	<g>
		<path class="st1" d="M340,168H90c-2.21,0-4,1.79-4,4v53c0,2.21,1.79,4,4,4h250c2.21,0,4-1.79,4-4v-53    C344,169.79,342.21,168,340,168z"/>
	</g>
</g>
<g id="Rectangle_2_00000163782204609905831730000011086137176233811639_">
	<g>
		<path class="st0" d="M341,258.72H91c-2.21,0-4,1.79-4,4v49.56c0,2.21,1.79,4,4,4h250c2.21,0,4-1.79,4-4v-49.56    C345,260.51,343.21,258.72,341,258.72z"/>
	</g>
	<g>
		<path class="st1" d="M341,258.72H91c-2.21,0-4,1.79-4,4v49.56c0,2.21,1.79,4,4,4h250c2.21,0,4-1.79,4-4v-49.56    C345,260.51,343.21,258.72,341,258.72z"/>
	</g>
</g>
<g id="Ellipse_1">
	<g>
		<circle class="st2" cx="297.5" cy="197.5" r="7.5"/>
	</g>
</g>
<g id="Ellipse_1_00000097468873278718211290000000819264054670002607_">
	<g>
		<circle class="st2" cx="132.5" cy="197.5" r="7.5"/>
	</g>
</g>
<g id="Ellipse_1_00000090986997538869819260000005557384336511487874_">
	<g>
		<circle class="st2" cx="132.5" cy="288.5" r="7.5"/>
	</g>
</g>
<g id="Ellipse_1_00000177448129022418461150000007646633197334756512_">
	<g>
		<circle class="st2" cx="297.5" cy="288.5" r="7.5"/>
	</g>
</g>
</svg>