<?xml version="1.0" encoding="utf-8"?>
<svg xmlns="http://www.w3.org/2000/svg" xmlns:xlink="http://www.w3.org/1999/xlink" version="1.1" width="1000" height="1000" viewBox="0 0 1000 1000" xml:space="preserve">
<desc>Created with Fabric.js 3.5.0</desc>
<defs>
</defs>
<rect x="0" y="0" width="100%" height="100%" fill="#ffffff"/>
<g transform="matrix(0.9371 0 0 0.9371 103.081 30.9243)" id="969223">
<g style="" vector-effect="non-scaling-stroke">
		<g transform="matrix(2.75 0 0 2.75 -59.5601 -6.7404)" id="surface1">
<path style="stroke: none; stroke-width: 1; stroke-dasharray: none; stroke-linecap: butt; stroke-dashoffset: 0; stroke-linejoin: miter; stroke-miterlimit: 4; is-custom-font: none; font-file-url: none; fill: rgb(255,193,33); fill-rule: nonzero; opacity: 1;" transform=" translate(-17.3418, -9.5489)" d="M 11.886719 18.695312 L 8.226562 18.695312 L 8.226562 10.230469 C 8.226562 10.050781 8.214844 9.871094 8.191406 9.691406 C 8.128906 9.273438 7.992188 8.945312 7.773438 8.714844 C 7.613281 8.546875 7.414062 8.421875 7.191406 8.351562 C 7.042969 8.300781 6.878906 8.265625 6.695312 8.25 C 6.597656 8.238281 6.496094 8.234375 6.394531 8.234375 C 5.746094 8.238281 5.105469 8.378906 4.511719 8.640625 C 4.214844 8.769531 3.933594 8.921875 3.660156 9.09375 L 3.660156 18.695312 L 0 18.695312 L 0 0 L 3.660156 0 L 3.660156 6.949219 C 4.328125 6.464844 5.058594 6.078125 5.832031 5.804688 C 6.585938 5.539062 7.378906 5.40625 8.175781 5.40625 C 8.539062 5.402344 8.902344 5.4375 9.257812 5.511719 C 9.707031 5.605469 10.101562 5.765625 10.445312 5.988281 C 10.617188 6.101562 10.777344 6.234375 10.921875 6.378906 C 11.515625 6.976562 11.835938 7.804688 11.882812 8.867188 C 11.886719 8.960938 11.886719 9.050781 11.886719 9.144531 Z M 25.582031 18.695312 L 22.695312 18.695312 L 22.394531 17.558594 C 21.878906 18.03125 21.28125 18.402344 20.601562 18.683594 C 20.25 18.828125 19.882812 18.941406 19.511719 19.011719 C 19.222656 19.070312 18.929688 19.097656 18.632812 19.097656 C 18.203125 19.101562 17.769531 19.050781 17.347656 18.949219 C 16.71875 18.800781 16.136719 18.484375 15.660156 18.039062 C 15.066406 17.472656 14.691406 16.714844 14.59375 15.898438 C 14.5625 15.667969 14.546875 15.4375 14.546875 15.207031 C 14.542969 14.789062 14.605469 14.371094 14.726562 13.96875 C 14.824219 13.652344 14.964844 13.351562 15.148438 13.074219 C 15.457031 12.605469 15.863281 12.210938 16.339844 11.914062 C 16.511719 11.804688 16.691406 11.707031 16.878906 11.621094 C 17.324219 11.414062 17.792969 11.269531 18.273438 11.191406 C 18.691406 11.121094 19.113281 11.089844 19.535156 11.089844 C 20.339844 11.089844 21.226562 11.199219 22.195312 11.417969 L 22.195312 10.15625 C 22.195312 9.507812 22.082031 9.027344 21.859375 8.722656 C 21.820312 8.664062 21.769531 8.613281 21.71875 8.5625 C 21.605469 8.464844 21.472656 8.386719 21.332031 8.332031 C 21.074219 8.230469 20.742188 8.167969 20.335938 8.144531 C 20.210938 8.136719 20.085938 8.132812 19.964844 8.132812 C 19.238281 8.136719 18.515625 8.203125 17.804688 8.328125 C 17.140625 8.445312 16.449219 8.609375 15.734375 8.824219 C 15.628906 8.855469 15.527344 8.886719 15.421875 8.917969 L 15.421875 6.46875 C 15.703125 6.324219 15.996094 6.199219 16.292969 6.097656 C 16.726562 5.941406 17.214844 5.808594 17.757812 5.695312 C 18.691406 5.503906 19.644531 5.40625 20.617188 5.40625 C 21.0625 5.402344 21.511719 5.433594 21.957031 5.488281 C 22.953125 5.621094 23.730469 5.917969 24.292969 6.375 C 24.328125 6.402344 24.359375 6.425781 24.390625 6.453125 C 24.816406 6.839844 25.136719 7.332031 25.308594 7.882812 C 25.429688 8.238281 25.511719 8.636719 25.550781 9.078125 C 25.570312 9.300781 25.582031 9.527344 25.582031 9.75 Z M 22.195312 15.585938 L 22.195312 13.390625 C 21.890625 13.339844 21.582031 13.300781 21.273438 13.269531 C 20.894531 13.230469 20.542969 13.210938 20.214844 13.210938 C 19.945312 13.210938 19.679688 13.234375 19.417969 13.285156 C 18.601562 13.453125 18.148438 13.914062 18.050781 14.664062 C 18.039062 14.769531 18.03125 14.875 18.03125 14.980469 C 18.03125 15.398438 18.125 15.742188 18.308594 16.011719 C 18.351562 16.074219 18.402344 16.136719 18.457031 16.195312 C 18.632812 16.367188 18.851562 16.492188 19.089844 16.550781 C 19.261719 16.597656 19.453125 16.625 19.664062 16.625 C 19.953125 16.621094 20.242188 16.578125 20.523438 16.496094 C 20.667969 16.457031 20.8125 16.40625 20.953125 16.34375 C 21.398438 16.160156 21.8125 15.90625 22.195312 15.585938 Z M 34.683594 15.964844 L 34.683594 18.441406 C 33.984375 18.726562 33.230469 18.871094 32.425781 18.871094 C 30.171875 18.871094 29.042969 17.601562 29.042969 15.058594 L 29.042969 0 L 32.703125 0 L 32.703125 14.753906 C 32.703125 15.140625 32.757812 15.433594 32.863281 15.632812 C 32.886719 15.675781 32.910156 15.714844 32.941406 15.75 C 33.023438 15.851562 33.132812 15.925781 33.253906 15.96875 C 33.386719 16.015625 33.546875 16.042969 33.730469 16.042969 C 33.8125 16.042969 33.894531 16.039062 33.976562 16.035156 C 34.144531 16.023438 34.34375 16.007812 34.570312 15.980469 C 34.609375 15.976562 34.648438 15.972656 34.683594 15.964844 Z M 34.683594 15.964844" stroke-linecap="round"/>
</g>
		<g transform="matrix(2.75 0 0 2.75 51.24 7.2934)" id="surface1">
<path style="stroke: none; stroke-width: 1; stroke-dasharray: none; stroke-linecap: butt; stroke-dashoffset: 0; stroke-linejoin: miter; stroke-miterlimit: 4; is-custom-font: none; font-file-url: none; fill: rgb(0,0,0); fill-rule: nonzero; opacity: 1;" transform=" translate(-57.6327, -14.6521)" d="M 47.425781 18.695312 L 44.539062 18.695312 L 44.238281 17.558594 C 43.722656 18.03125 43.125 18.402344 42.445312 18.683594 C 42.09375 18.828125 41.730469 18.941406 41.355469 19.011719 C 41.066406 19.070312 40.773438 19.097656 40.476562 19.097656 C 40.046875 19.101562 39.613281 19.050781 39.191406 18.949219 C 38.5625 18.800781 37.980469 18.484375 37.507812 18.039062 C 36.914062 17.472656 36.535156 16.714844 36.4375 15.898438 C 36.40625 15.667969 36.390625 15.4375 36.390625 15.207031 C 36.386719 14.789062 36.449219 14.371094 36.570312 13.96875 C 36.667969 13.652344 36.8125 13.351562 36.992188 13.074219 C 37.300781 12.605469 37.707031 12.210938 38.183594 11.914062 C 38.355469 11.804688 38.535156 11.707031 38.722656 11.621094 C 39.167969 11.414062 39.636719 11.269531 40.121094 11.191406 C 40.535156 11.121094 40.957031 11.089844 41.382812 11.089844 C 42.183594 11.089844 43.070312 11.199219 44.039062 11.417969 L 44.039062 10.15625 C 44.039062 9.507812 43.925781 9.027344 43.703125 8.722656 C 43.664062 8.664062 43.617188 8.613281 43.5625 8.5625 C 43.449219 8.464844 43.316406 8.386719 43.175781 8.332031 C 42.917969 8.230469 42.585938 8.167969 42.179688 8.144531 C 42.054688 8.136719 41.933594 8.132812 41.808594 8.132812 C 41.082031 8.136719 40.363281 8.203125 39.648438 8.328125 C 38.984375 8.445312 38.296875 8.609375 37.578125 8.824219 C 37.472656 8.855469 37.371094 8.886719 37.269531 8.917969 L 37.269531 6.46875 C 37.546875 6.324219 37.839844 6.199219 38.136719 6.097656 C 38.570312 5.941406 39.058594 5.808594 39.601562 5.695312 C 40.535156 5.503906 41.488281 5.40625 42.460938 5.40625 C 42.910156 5.402344 43.355469 5.433594 43.800781 5.488281 C 44.796875 5.621094 45.574219 5.917969 46.140625 6.375 C 46.171875 6.402344 46.203125 6.425781 46.234375 6.453125 C 46.660156 6.839844 46.980469 7.332031 47.15625 7.882812 C 47.277344 8.238281 47.355469 8.636719 47.394531 9.078125 C 47.414062 9.300781 47.425781 9.527344 47.425781 9.75 Z M 44.039062 15.585938 L 44.039062 13.390625 C 43.734375 13.339844 43.425781 13.300781 43.117188 13.269531 C 42.742188 13.230469 42.386719 13.210938 42.058594 13.210938 C 41.789062 13.210938 41.523438 13.234375 41.261719 13.285156 C 40.449219 13.453125 39.992188 13.914062 39.894531 14.664062 C 39.882812 14.769531 39.875 14.875 39.875 14.980469 C 39.875 15.398438 39.96875 15.742188 40.152344 16.011719 C 40.195312 16.074219 40.246094 16.136719 40.300781 16.195312 C 40.476562 16.367188 40.695312 16.492188 40.933594 16.550781 C 41.105469 16.597656 41.296875 16.625 41.507812 16.625 C 41.796875 16.621094 42.085938 16.578125 42.367188 16.496094 C 42.511719 16.457031 42.65625 16.40625 42.796875 16.34375 C 43.242188 16.160156 43.65625 15.90625 44.039062 15.585938 Z M 54.546875 23.898438 L 50.886719 23.898438 L 50.886719 5.785156 L 53.894531 5.785156 L 54.195312 6.996094 C 54.617188 6.59375 55.097656 6.257812 55.625 6.007812 C 55.753906 5.945312 55.882812 5.890625 56.015625 5.835938 C 56.726562 5.550781 57.449219 5.40625 58.183594 5.40625 C 58.792969 5.398438 59.402344 5.496094 59.976562 5.695312 C 60.792969 5.988281 61.503906 6.511719 62.035156 7.199219 C 62.867188 8.253906 63.332031 9.632812 63.429688 11.339844 C 63.445312 11.578125 63.449219 11.8125 63.449219 12.050781 C 63.449219 13.382812 63.234375 14.570312 62.796875 15.613281 C 62.363281 16.65625 61.738281 17.476562 60.917969 18.074219 C 60.121094 18.65625 59.164062 18.96875 58.183594 18.972656 C 58.152344 18.972656 58.117188 18.972656 58.082031 18.972656 C 57.398438 18.972656 56.746094 18.863281 56.128906 18.644531 C 55.785156 18.523438 55.457031 18.371094 55.148438 18.179688 C 54.933594 18.050781 54.734375 17.902344 54.546875 17.734375 Z M 54.546875 8.867188 L 54.546875 15.511719 C 55.285156 15.964844 56.101562 16.195312 57.003906 16.195312 C 57.277344 16.195312 57.546875 16.164062 57.8125 16.101562 C 58.324219 15.980469 58.773438 15.671875 59.074219 15.234375 C 59.238281 14.988281 59.367188 14.722656 59.453125 14.441406 C 59.617188 13.933594 59.710938 13.308594 59.734375 12.566406 C 59.738281 12.445312 59.738281 12.324219 59.738281 12.203125 C 59.738281 10.804688 59.523438 9.785156 59.085938 9.144531 C 58.777344 8.691406 58.304688 8.375 57.765625 8.265625 C 57.515625 8.210938 57.261719 8.183594 57.003906 8.183594 C 56.136719 8.183594 55.316406 8.414062 54.546875 8.867188 Z M 69.972656 23.898438 L 66.308594 23.898438 L 66.308594 5.785156 L 69.320312 5.785156 L 69.621094 6.996094 C 70.039062 6.59375 70.523438 6.257812 71.046875 6.007812 C 71.175781 5.945312 71.304688 5.890625 71.4375 5.835938 C 72.148438 5.550781 72.871094 5.40625 73.609375 5.40625 C 74.21875 5.398438 74.824219 5.496094 75.402344 5.695312 C 76.214844 5.988281 76.929688 6.511719 77.457031 7.199219 C 78.289062 8.253906 78.753906 9.632812 78.855469 11.339844 C 78.867188 11.578125 78.875 11.8125 78.875 12.050781 C 78.875 13.382812 78.65625 14.570312 78.222656 15.613281 C 77.789062 16.65625 77.160156 17.476562 76.339844 18.074219 C 75.546875 18.65625 74.589844 18.96875 73.609375 18.972656 C 73.574219 18.972656 73.539062 18.972656 73.507812 18.972656 C 72.820312 18.972656 72.171875 18.863281 71.550781 18.644531 C 71.210938 18.523438 70.878906 18.371094 70.570312 18.179688 C 70.359375 18.050781 70.15625 17.902344 69.972656 17.734375 Z M 69.972656 8.867188 L 69.972656 15.511719 C 70.707031 15.964844 71.527344 16.195312 72.429688 16.195312 C 72.699219 16.195312 72.972656 16.164062 73.234375 16.101562 C 73.75 15.980469 74.199219 15.671875 74.5 15.234375 C 74.660156 14.988281 74.789062 14.722656 74.875 14.441406 C 75.042969 13.933594 75.136719 13.308594 75.15625 12.566406 C 75.160156 12.445312 75.164062 12.324219 75.164062 12.203125 C 75.164062 10.804688 74.945312 9.785156 74.511719 9.144531 C 74.203125 8.691406 73.726562 8.375 73.191406 8.265625 C 72.941406 8.210938 72.683594 8.183594 72.429688 8.183594 C 71.558594 8.183594 70.742188 8.414062 69.972656 8.867188 Z M 69.972656 8.867188" stroke-linecap="round"/>
</g>
</g>
</g>
</svg>