<?xml version="1.0" encoding="utf-8"?>
<svg xmlns="http://www.w3.org/2000/svg" xmlns:xlink="http://www.w3.org/1999/xlink" version="1.1" id="Layer_1" x="0px" y="0px" viewBox="0 0 209 150.4" style="enable-background:new 0 0 209 150.4;" xml:space="preserve">
<style type="text/css">
	.st0-logo{fill-rule:evenodd;clip-rule:evenodd;fill:#FFC423;}
	.st1-logo{fill:none;stroke:#000000;stroke-width:4;stroke-miterlimit:100;}
	.st2-logo{fill-rule:evenodd;clip-rule:evenodd;fill:#1A1A1A;}
</style>
<g id="Rectangle_3_00000122708717415471067630000014050778579348335795_">
	<g>
		<path class="st0-logo" d="M178.2,4.7h-24.3c-1.3,0-2.3,1-2.3,2.3v122.9c0,1.3,1,2.3,2.3,2.3h24.3c1.3,0,2.3-1,2.3-2.3V7    C180.4,5.7,179.5,4.7,178.2,4.7z"/>
	</g>
	<g>
		<path class="st1-logo" d="M178.2,4.7h-24.3c-1.3,0-2.3,1-2.3,2.3v122.9c0,1.3,1,2.3,2.3,2.3h24.3c1.3,0,2.3-1,2.3-2.3V7    C180.4,5.7,179.5,4.7,178.2,4.7z"/>
	</g>
</g>
<g id="Ellipse_1_00000177448129022418461150000007646633197334756512_">
	<g id="Rectangle_3">
		<g>
			<path class="st0-logo" d="M54.5,4.7H30.2c-1.3,0-2.3,1-2.3,2.3v122.9c0,1.3,1,2.3,2.3,2.3h24.3c1.3,0,2.3-1,2.3-2.3V7     C56.7,5.7,55.8,4.7,54.5,4.7z"/>
		</g>
		<g>
			<path class="st1-logo" d="M54.5,4.7H30.2c-1.3,0-2.3,1-2.3,2.3v122.9c0,1.3,1,2.3,2.3,2.3h24.3c1.3,0,2.3-1,2.3-2.3V7     C56.7,5.7,55.8,4.7,54.5,4.7z"/>
		</g>
	</g>
</g>
<g id="Rectangle_2_00000163782204609905831730000011086137176233811639_">
	<g>
		<path class="st0-logo" d="M199.4,98.6H9.7c-1.7,0-3,1.4-3,3v37.6c0,1.7,1.4,3,3,3h189.7c1.7,0,3-1.4,3-3v-37.6    C202.5,99.9,201.1,98.6,199.4,98.6z"/>
	</g>
	<g>
		<path class="st1-logo" d="M199.4,98.6H9.7c-1.7,0-3,1.4-3,3v37.6c0,1.7,1.4,3,3,3h189.7c1.7,0,3-1.4,3-3v-37.6    C202.5,99.9,201.1,98.6,199.4,98.6z"/>
	</g>
</g>
<g id="Rectangle_2">
	<g>
		<path class="st0-logo" d="M198.7,29.7H8.9c-1.7,0-3,1.4-3,3v40.2c0,1.7,1.4,3,3,3h189.7c1.7,0,3-1.4,3-3V32.7    C201.7,31.1,200.3,29.7,198.7,29.7z"/>
	</g>
	<g>
		<path class="st1-logo" d="M198.7,29.7H8.9c-1.7,0-3,1.4-3,3v40.2c0,1.7,1.4,3,3,3h189.7c1.7,0,3-1.4,3-3V32.7    C201.7,31.1,200.3,29.7,198.7,29.7z"/>
	</g>
</g>
<g>
	<circle class="st2-logo" cx="166.4" cy="121.2" r="5.7"/>
</g>
<g id="Ellipse_1_00000090986997538869819260000005557384336511487874_">
	<g>
		<circle class="st2-logo" cx="41.2" cy="121.2" r="5.7"/>
	</g>
</g>
<g id="Ellipse_1_00000097468873278718211290000000819264054670002607_">
	<g>
		<circle class="st2-logo" cx="41.2" cy="52.1" r="5.7"/>
	</g>
</g>
<g id="Ellipse_1">
	<g>
		<circle class="st2-logo" cx="166.4" cy="52.1" r="5.7"/>
	</g>
</g>
</svg>