<?xml version="1.0" encoding="utf-8"?>
<!-- Generator: Adobe Illustrator 27.0.0, SVG Export Plug-In . SVG Version: 6.00 Build 0)  -->
<svg version="1.1" id="Group_1_00000148638724174097919330000000146508021379227062_"
	 xmlns="http://www.w3.org/2000/svg" xmlns:xlink="http://www.w3.org/1999/xlink" x="0px" y="0px" viewBox="0 0 280.14 191.42"
	 style="enable-background:new 0 0 280.14 191.42;" xml:space="preserve">
<style type="text/css">
	.st0{fill-rule:evenodd;clip-rule:evenodd;fill:#FFC423;}
	.st1{fill:none;stroke:#000000;stroke-width:4;stroke-miterlimit:100;}
	.st2{fill-rule:evenodd;clip-rule:evenodd;fill:#1A1A1A;}
</style>
<g id="Rectangle_3">
	<g>
		<path class="st0" d="M74.61,5.4h-32c-1.66,0-3,1.34-3,3v162c0,1.66,1.34,3,3,3h32c1.66,0,3-1.34,3-3V8.4
			C77.61,6.74,76.27,5.4,74.61,5.4z"/>
	</g>
	<g>
		<path class="st1" d="M74.61,5.4h-32c-1.66,0-3,1.34-3,3v162c0,1.66,1.34,3,3,3h32c1.66,0,3-1.34,3-3V8.4
			C77.61,6.74,76.27,5.4,74.61,5.4z"/>
	</g>
</g>
<g id="Rectangle_3_00000122708717415471067630000014050778579348335795_">
	<g>
		<path class="st0" d="M237.61,5.4h-32c-1.66,0-3,1.34-3,3v162c0,1.66,1.34,3,3,3h32c1.66,0,3-1.34,3-3V8.4
			C240.61,6.74,239.27,5.4,237.61,5.4z"/>
	</g>
	<g>
		<path class="st1" d="M237.61,5.4h-32c-1.66,0-3,1.34-3,3v162c0,1.66,1.34,3,3,3h32c1.66,0,3-1.34,3-3V8.4
			C240.61,6.74,239.27,5.4,237.61,5.4z"/>
	</g>
</g>
<g id="Rectangle_2">
	<g>
		<path class="st0" d="M274.53,66.57l-27.44-45.34c-1.14-1.89-3.52-2.54-5.31-1.46l-71.83,43.48l-3.31,19.75l9.57,2.48l16.26-10.73
			l-7.27,13.17l-9.15,20.65l21.41-6.99l-3.13,18.09l79.05-47.69C275.15,70.87,275.68,68.46,274.53,66.57z M149.79,83.31l14.69-13.77
			l-36.84-11.22l-16.39-4.99l-86.05-26.2c-1.96-0.6-4.08,0.63-4.72,2.74L5.04,80.58c-0.64,2.11,0.43,4.31,2.39,4.91l136.28,41.49
			l13.6,3.3l-10.21-17.74l19.23-11.07L149.79,83.31z"/>
	</g>
	<g>
		<path class="st1" d="M274.53,66.57l-27.44-45.34c-1.14-1.89-3.52-2.54-5.31-1.46l-71.83,43.48l-3.31,19.75l9.57,2.48l16.26-10.73
			l-7.27,13.17l-9.15,20.65l21.41-6.99l-3.13,18.09l79.05-47.69C275.15,70.87,275.68,68.46,274.53,66.57z M149.79,83.31l14.69-13.77
			l-36.84-11.22l-16.39-4.99l-86.05-26.2c-1.96-0.6-4.08,0.63-4.72,2.74L5.04,80.58c-0.64,2.11,0.43,4.31,2.39,4.91l136.28,41.49
			l13.6,3.3l-10.21-17.74l19.23-11.07L149.79,83.31z"/>
	</g>
</g>
<g id="Rectangle_2_00000163782204609905831730000011086137176233811639_">
	<g>
		<path class="st0" d="M265.61,129.12l-149.5,0.59l-9.6,18.64l5.65,11.29l-11.86,16.94l3.39-18.07l-7.34-14.68l3.11-14.71H15.61
			c-2.21,0-4,1.79-4,4v49.56c0,2.21,1.79,4,4,4h250c2.21,0,4-1.79,4-4v-49.56C269.61,130.91,267.82,129.12,265.61,129.12z"/>
	</g>
	<g>
		<path class="st1" d="M265.61,129.12l-149.5,0.59l-9.6,18.64l5.65,11.29l-11.86,16.94l3.39-18.07l-7.34-14.68l3.11-14.71H15.61
			c-2.21,0-4,1.79-4,4v49.56c0,2.21,1.79,4,4,4h250c2.21,0,4-1.79,4-4v-49.56C269.61,130.91,267.82,129.12,265.61,129.12z"/>
	</g>
</g>
<g id="Ellipse_1">
	<g>
		<circle class="st2" cx="222.11" cy="67.9" r="7.5"/>
	</g>
</g>
<g id="Ellipse_1_00000097468873278718211290000000819264054670002607_">
	<g>
		<circle class="st2" cx="57.11" cy="67.9" r="7.5"/>
	</g>
</g>
<g id="Ellipse_1_00000090986997538869819260000005557384336511487874_">
	<g>
		<circle class="st2" cx="57.11" cy="158.9" r="7.5"/>
	</g>
</g>
<g id="Ellipse_1_00000177448129022418461150000007646633197334756512_">
	<g>
		<circle class="st2" cx="222.11" cy="158.9" r="7.5"/>
	</g>
</g>
</svg>
