<svg xmlns="http://www.w3.org/2000/svg" xmlns:xlink="http://www.w3.org/1999/xlink"  viewBox="0 0 24 24" version="1.1">
<g id="surface1">
<path style=" stroke:none;fill-rule:nonzero;fill:rgb(100%,100%,100%);fill-opacity:1;" d="M 4.5 4.800781 L 4.5 19.800781 L 19.5 19.800781 L 19.5 4.800781 Z M 4.5 4.800781 "/>
<path style=" stroke:none;fill-rule:nonzero;fill:rgb(0%,43.529412%,81.176471%);fill-opacity:1;" d="M 16.824219 8.480469 L 17.304688 7.175781 L 19.5 7.175781 L 19.5 4.800781 L 4.5 4.800781 L 4.5 19.800781 L 19.5 19.800781 L 19.5 17.429688 L 17.429688 17.429688 L 16.664062 16.535156 L 15.871094 17.429688 L 9.988281 17.429688 L 9.988281 12.664062 L 8.050781 12.664062 L 10.476562 7.175781 L 12.835938 7.175781 L 13.40625 8.421875 L 13.40625 7.175781 L 16.335938 7.175781 Z M 15.171875 9.34375 L 15.164062 8.820312 L 15.363281 9.34375 L 16.339844 11.949219 L 17.308594 11.949219 L 18.289062 9.34375 L 18.480469 8.824219 L 18.480469 11.949219 L 19.5 11.949219 L 19.5 7.949219 L 17.804688 7.949219 L 17.035156 9.980469 L 16.828125 10.53125 L 16.621094 9.980469 L 15.84375 7.949219 L 14.148438 7.949219 L 14.148438 11.949219 L 15.171875 11.949219 Z M 12.976562 11.949219 L 14.148438 11.949219 L 12.390625 7.949219 L 11.023438 7.949219 L 9.253906 11.949219 L 10.414062 11.949219 L 10.726562 11.179688 L 12.664062 11.179688 Z M 11.496094 9.304688 L 11.695312 8.804688 L 11.894531 9.304688 L 12.308594 10.316406 L 11.078125 10.316406 Z M 10.808594 12.671875 L 10.808594 16.65625 L 14.148438 16.65625 L 14.148438 15.789062 L 11.828125 15.789062 L 11.828125 15.09375 L 14.105469 15.09375 L 14.105469 14.234375 L 11.828125 14.234375 L 11.828125 13.535156 L 14.148438 13.535156 L 14.148438 12.671875 Z M 17.863281 16.65625 L 19.191406 16.65625 L 17.320312 14.65625 L 19.191406 12.671875 L 17.886719 12.671875 L 16.679688 13.964844 L 15.480469 12.671875 L 14.148438 12.671875 L 16.015625 14.671875 L 14.148438 16.65625 L 15.441406 16.65625 L 16.65625 15.355469 Z M 18.371094 14.648438 L 19.5 15.800781 L 19.5 13.515625 Z M 18.371094 14.648438 "/>
</g>
</svg>