<svg xmlns="http://www.w3.org/2000/svg" xmlns:xlink="http://www.w3.org/1999/xlink"  viewBox="0 0 24 17" version="1.1">
<g id="surface1">
<path style=" stroke:none;fill-rule:nonzero;fill:rgb(100%,37.254902%,0%);fill-opacity:1;" d="M 9.488281 4.042969 L 14.4375 4.042969 L 14.4375 12.957031 L 9.488281 12.957031 Z M 9.488281 4.042969 "/>
<path style=" stroke:none;fill-rule:nonzero;fill:rgb(92.156863%,0%,10.588235%);fill-opacity:1;" d="M 9.804688 8.5 C 9.800781 6.761719 10.597656 5.117188 11.960938 4.042969 C 9.644531 2.21875 6.316406 2.484375 4.3125 4.65625 C 2.3125 6.828125 2.3125 10.171875 4.3125 12.34375 C 6.316406 14.515625 9.644531 14.78125 11.960938 12.957031 C 10.597656 11.882812 9.800781 10.238281 9.804688 8.5 Z M 9.804688 8.5 "/>
<path style=" stroke:none;fill-rule:nonzero;fill:rgb(96.862745%,61.960784%,10.588235%);fill-opacity:1;" d="M 21.109375 8.5 C 21.109375 10.667969 19.875 12.648438 17.929688 13.597656 C 15.980469 14.546875 13.664062 14.296875 11.960938 12.957031 C 13.324219 11.878906 14.121094 10.238281 14.121094 8.5 C 14.121094 6.761719 13.324219 5.121094 11.960938 4.042969 C 13.664062 2.703125 15.980469 2.453125 17.929688 3.402344 C 19.875 4.351562 21.109375 6.332031 21.109375 8.5 Z M 21.109375 8.5 "/>
<path style=" stroke:none;fill-rule:nonzero;fill:rgb(96.862745%,61.960784%,10.588235%);fill-opacity:1;" d="M 20.570312 12.011719 L 20.570312 11.828125 L 20.644531 11.828125 L 20.644531 11.792969 L 20.457031 11.792969 L 20.457031 11.828125 L 20.53125 11.828125 L 20.53125 12.011719 Z M 20.933594 12.011719 L 20.933594 11.792969 L 20.878906 11.792969 L 20.8125 11.941406 L 20.746094 11.792969 L 20.6875 11.792969 L 20.6875 12.011719 L 20.726562 12.011719 L 20.726562 11.84375 L 20.789062 11.988281 L 20.832031 11.988281 L 20.894531 11.84375 L 20.894531 12.011719 Z M 20.933594 12.011719 "/>
</g>
</svg>