<svg xmlns="http://www.w3.org/2000/svg" xmlns:xlink="http://www.w3.org/1999/xlink"  viewBox="0 0 191 62" version="1.1">
<defs>
<linearGradient id="linear0" gradientUnits="userSpaceOnUse" x1="0.459742" y1="-0.0200617" x2="0.548769" y2="1" gradientTransform="matrix(191,0,0,-61.753906,0,61.753906)">
<stop offset="0" style="stop-color:rgb(13.333333%,13.72549%,34.117647%);stop-opacity:1;"/>
<stop offset="1" style="stop-color:rgb(14.509804%,29.019608%,64.705882%);stop-opacity:1;"/>
</linearGradient>
</defs>
<g id="surface1">
<path style=" stroke:none;fill-rule:nonzero;fill:url(#linear0);" d="M 98.78125 19.742188 C 98.671875 28.34375 106.4375 33.144531 112.289062 36 C 118.296875 38.925781 120.316406 40.804688 120.292969 43.421875 C 120.25 47.429688 115.5 49.199219 111.054688 49.269531 C 103.300781 49.390625 98.792969 47.171875 95.207031 45.496094 L 92.414062 58.582031 C 96.011719 60.242188 102.667969 61.6875 109.574219 61.753906 C 125.78125 61.753906 136.386719 53.742188 136.445312 41.320312 C 136.507812 25.558594 114.667969 24.6875 114.816406 17.640625 C 114.867188 15.503906 116.90625 13.222656 121.367188 12.644531 C 123.574219 12.351562 129.671875 12.128906 136.582031 15.316406 L 139.296875 2.652344 C 135.578125 1.296875 130.800781 0 124.855469 0 C 109.597656 0 98.867188 8.121094 98.78125 19.742188 M 165.363281 1.089844 C 162.402344 1.089844 159.910156 2.820312 158.796875 5.472656 L 135.640625 60.820312 L 151.839844 60.820312 L 155.0625 51.90625 L 174.855469 51.90625 L 176.726562 60.820312 L 191 60.820312 L 178.542969 1.089844 L 165.363281 1.089844 M 167.628906 17.226562 L 172.300781 39.65625 L 159.5 39.65625 L 167.628906 17.226562 M 79.144531 1.089844 L 66.375 60.820312 L 81.808594 60.820312 L 94.570312 1.089844 L 79.144531 1.089844 M 56.308594 1.089844 L 40.246094 41.746094 L 33.746094 7.179688 C 32.984375 3.320312 29.972656 1.089844 26.628906 1.089844 L 0.367188 1.089844 L 0 2.824219 C 5.390625 3.996094 11.515625 5.886719 15.226562 7.90625 C 17.5 9.140625 18.148438 10.222656 18.890625 13.15625 L 31.199219 60.820312 L 47.511719 60.820312 L 72.519531 1.089844 L 56.308594 1.089844 "/>
</g>
</svg>