<svg xmlns="http://www.w3.org/2000/svg" xmlns:xlink="http://www.w3.org/1999/xlink" version="1.1" x="0px" y="0px" viewBox="0 0 582.9 390.3" style="enable-background:new 0 0 582.9 390.3;" xml:space="preserve">
<style type="text/css">
	.st0-offline{fill-rule:evenodd;clip-rule:evenodd;fill:#FFC529;}
	.st1-offline{fill:none;stroke:#010101;stroke-width:4;stroke-miterlimit:100;}
	.st2-offline{fill-rule:evenodd;clip-rule:evenodd;fill:#1A1A1A;}
	.st3-offline{display:none;}
	.st4-offline{display:inline;fill:none;stroke:#000000;stroke-width:3;stroke-miterlimit:10;}
	.st5-offline{fill:#D0E7EA;stroke:#010101;stroke-width:4;stroke-miterlimit:10;}
	.st6-offline{fill:none;stroke:#010101;stroke-width:4;stroke-miterlimit:10;}
	.st7-offline{fill:#FFC62B;stroke:#010101;stroke-width:4;stroke-miterlimit:10;}
	.st8-offline{fill:#D2D2D1;stroke:#010101;stroke-width:3.563;stroke-miterlimit:10;}
	.st9-offline{fill:#D2D2D1;stroke:#010101;stroke-width:4;stroke-miterlimit:10;}
	.st10-offline{fill:#7D7D7D;stroke:#010101;stroke-width:2.5869;stroke-miterlimit:10;}
	.st11-offline{fill:#3CB149;stroke:#010101;stroke-width:4;stroke-miterlimit:10;}
	.st12-offline{fill:#3CB149;stroke:#010101;stroke-width:4.5929;stroke-miterlimit:10;}
	.st13-offline{fill:#010101;}
</style>
<g id="Layer_1">
</g>
<g id="Layer_2">
	<g id="Group_1_00000148638724174097919330000000146508021379227062_">
		<g id="Rectangle_3">
			<g>
				<path class="st0-offline" d="M429,245.6h-24.3c-1.3,0-2.3,1-2.3,2.3v122.9c0,1.3,1,2.3,2.3,2.3H429c1.3,0,2.3-1,2.3-2.3V247.9      C431.2,246.6,430.3,245.6,429,245.6z"/>
			</g>
			<g>
				<path class="st1-offline" d="M429,245.6h-24.3c-1.3,0-2.3,1-2.3,2.3v122.9c0,1.3,1,2.3,2.3,2.3H429c1.3,0,2.3-1,2.3-2.3V247.9      C431.2,246.6,430.3,245.6,429,245.6z"/>
			</g>
		</g>
		<g id="Rectangle_3_00000122708717415471067630000014050778579348335795_">
			<g>
				<path class="st0-offline" d="M552.7,245.6h-24.3c-1.3,0-2.3,1-2.3,2.3v122.9c0,1.3,1,2.3,2.3,2.3h24.3c1.3,0,2.3-1,2.3-2.3V247.9      C554.9,246.6,554,245.6,552.7,245.6z"/>
			</g>
			<g>
				<path class="st1-offline" d="M552.7,245.6h-24.3c-1.3,0-2.3,1-2.3,2.3v122.9c0,1.3,1,2.3,2.3,2.3h24.3c1.3,0,2.3-1,2.3-2.3V247.9      C554.9,246.6,554,245.6,552.7,245.6z"/>
			</g>
		</g>
		<g id="Rectangle_2">
			<g>
				<path class="st0-offline" d="M573.2,270.6H383.4c-1.7,0-3,1.4-3,3v40.2c0,1.7,1.4,3,3,3h189.7c1.7,0,3-1.4,3-3v-40.2      C576.2,272,574.8,270.6,573.2,270.6z"/>
			</g>
			<g>
				<path class="st1-offline" d="M573.2,270.6H383.4c-1.7,0-3,1.4-3,3v40.2c0,1.7,1.4,3,3,3h189.7c1.7,0,3-1.4,3-3v-40.2      C576.2,272,574.8,270.6,573.2,270.6z"/>
			</g>
		</g>
		<g id="Rectangle_2_00000163782204609905831730000011086137176233811639_">
			<g>
				<path class="st0-offline" d="M573.9,339.5H384.2c-1.7,0-3,1.4-3,3v37.6c0,1.7,1.4,3,3,3h189.7c1.7,0,3-1.4,3-3v-37.6      C577,340.8,575.6,339.5,573.9,339.5z"/>
			</g>
			<g>
				<path class="st1-offline" d="M573.9,339.5H384.2c-1.7,0-3,1.4-3,3v37.6c0,1.7,1.4,3,3,3h189.7c1.7,0,3-1.4,3-3v-37.6      C577,340.8,575.6,339.5,573.9,339.5z"/>
			</g>
		</g>
		<g id="Ellipse_1">
			<g>
				<circle class="st2-offline" cx="540.9" cy="293" r="5.7"/>
			</g>
		</g>
		<g id="Ellipse_1_00000097468873278718211290000000819264054670002607_">
			<g>
				<circle class="st2-offline" cx="415.7" cy="293" r="5.7"/>
			</g>
		</g>
		<g id="Ellipse_1_00000090986997538869819260000005557384336511487874_">
			<g>
				<circle class="st2-offline" cx="415.7" cy="362.1" r="5.7"/>
			</g>
		</g>
		<g id="Ellipse_1_00000177448129022418461150000007646633197334756512_">
			<g>
				<circle class="st2-offline" cx="540.9" cy="362.1" r="5.7"/>
			</g>
		</g>
	</g>
</g>
<g id="Layer_5" class="st3-offline">
	<circle class="st4-offline" cx="109.9" cy="107.3" r="102.5"/>
</g>
<g id="Layer_3">
	<circle class="st5-offline" cx="109.9" cy="107.3" r="86.4"/>
	<path class="st6-offline" d="M161.9,176.2c0,0,38.4-19.2,46.1,34.6c7.7,53.8,52.9,21.4,52.9,21.4"/>
	<path class="st6-offline" d="M381.4,362.6c0,0-24.8,1.7-52.5,2.7c-54.5,2.4-55.5-43-7.8-59.7C374,293,356.6,223,303.9,264"/>
	<path class="st7-offline" d="M304.6,263.3c7.5,6,8.8,16.9,2.8,24.4c-6,7.5-12.9,3.8-20.4-2.2c-7.5-6-12.8-11.9-6.8-19.4   C286.2,258.6,297.1,257.4,304.6,263.3z"/>
	<path class="st8-offline" d="M278.2,280.8l-5.8,6.5c-0.9,1-0.8,2.6,0.2,3.5l0.4,0.4c1,0.9,2.6,0.8,3.5-0.2l5.8-6.5c0.9-1,0.8-2.6-0.2-3.5   l-0.4-0.4C280.6,279.7,279.1,279.8,278.2,280.8z"/>
	<path class="st8-offline" d="M289.3,290l-5.8,6.5c-0.9,1-0.8,2.6,0.2,3.5l0.4,0.4c1,0.9,2.6,0.8,3.5-0.2l5.8-6.5c0.9-1,0.8-2.6-0.2-3.5   l-0.4-0.4C291.8,288.9,290.2,289,289.3,290z"/>
	<path class="st5-offline" d="M295.1,218.6c-0.3,3.8-3.7,7.8-6.2,11c-6.8,8.4-19.1,9.8-27.5,3c-8.4-6.8-9.8-19.1-3-27.5   c2.3-2.8,5.2-6,8.4-7.2"/>
	
		<ellipse transform="matrix(0.6256 -0.7801 0.7801 0.6256 -60.0402 296.8176)" class="st9-offline" cx="279.2" cy="211" rx="11.1" ry="18.4"/>
	<path class="st10-offline" d="M272.4,204.1l-2.2,2.4c-0.7,0.8-0.7,2.1,0.2,2.8l1.1,1c0.8,0.7,2.1,0.7,2.8-0.2l2.2-2.4   c0.7-0.8,0.7-2.1-0.2-2.8l-1.1-1C274.3,203.2,273.1,203.3,272.4,204.1z"/>
	<path class="st10-offline" d="M283,212.8l-2.2,2.4c-0.7,0.8-0.7,2.1,0.2,2.8l1.1,1c0.8,0.7,2.1,0.7,2.8-0.2l2.2-2.4   c0.7-0.8,0.7-2.1-0.2-2.8l-1.1-1C285,212,283.8,212,283,212.8z"/>
	<path class="st11-offline" d="M85.9,115.9c6.1-1.5,18.8,1,25,1.9c5.5,0.8,16.6,3.8,22.1,2.9c4.1-0.7,13.1-6.5,16.4-3.9   c5.5,4.3,3.5,21.9,0,27.9c-2.5,4.3-10.8,10.1-14.4,13.5c-5,4.6-15.5,14-18.3,20.2c-1.3,2.8-1.2,10.1-3.9,11.6   c-1.8,1-6.5-1.2-7.7-2.9c-3.5-5.2,0.4-18.8,0-25c-0.2-2.7-1-8.6-2.9-10.6c-3.6-3.9-15.2-5.3-19.3-8.7c-2.1-1.8-4.7-7-5.8-9.6   c-1.1-2.7-2.2-8.9-1-11.6C77.4,119.1,83.2,116.5,85.9,115.9z"/>
	<path class="st12-offline" d="M34.7,65.3c0,0,10.7,6.2,11,11c0.4,6.4-0.3,15.7,0.8,22c0.9,5.2,7.9,14.8,12.6,17c1.9,0.9,6.8-0.9,6.8-0.9   s6.8,2.5,9.3,0.8c1.5-1.3-6.1-6.9-6.1-6.9s-4.5-20.7,17-17.8c7.8,1.1,4.2-13.9,5.4-18.6c0.9-3.5,7.3-8.2,8.5-11.6   c1.1-3.3-0.8-10.1-6.2-12.4c-5.4-2.3-8.5-21.7-8.5-21.7s20.3-6.8,36.4-3.4c7.5-0.5,12,10.2,17,15.8c3,3.4,3.1,14.7,8.5,16.3   s7,3.1,8.5,1.5c2.1-2.1-1.6-9.2,0-11.6c0.8-1.3,5-1,6.2,0c3.2,2.8,2.3,17,2.3,17l-2.3,13.9c0,0-2.3,10.1,3.1,11.6   s12.3,3.3,16.3,2.3c2.2-0.5,10.8-5.9,10.8-5.9s-6.8-58.8-87.2-62.7C61.7,22,34.7,65.3,34.7,65.3z"/>
	<g>
		<path class="st13-offline" d="M301.8,191.2c9.5-13.8,20.5-27.3,31.3-40.1c0,0-0.5,7.1-0.5,7.1c-0.5,6.9-1,13.8-1.6,20.7    c0,0-4.1-1.8-4.1-1.8c2.7-2.8,5.4-5.6,8.2-8.4c8.3-8.3,16.7-16.6,25.6-24.3c-10.8,14.3-22.7,27.7-34.8,40.8    c0.6-9.1,1.3-18.4,2.2-27.4c0,0,4.1,1.7,4.1,1.7C322.5,170.3,312.2,181.4,301.8,191.2L301.8,191.2z"/>
	</g>
	<g>
		<path class="st13-offline" d="M278.8,181.9c-0.9-15.2-0.6-31.2-0.2-46.4c0,0,0.2-7.5,0.2-7.5c5.5,8.1,11.1,16.5,16.4,24.6    c0,0-4.6,1.1-4.6,1.1c0.4-4.1,0.9-8.2,1.4-12.4c1.5-12.4,3.2-24.7,5.6-36.9c0.3,18.9-1,37.9-2.6,56.8c-5.4-8-10.9-16.3-16-24.4    c0,0,4.5-1.2,4.5-1.2C282.4,151,281.1,166.9,278.8,181.9L278.8,181.9z"/>
	</g>
	<g>
		<path class="st13-offline" d="M202.4,320.8c11.5-4.1,24.4-7.5,36.2-10.6c0,0-0.3,3.8-0.3,3.8c-6.9-2.8-15-6.3-21.8-9.2    c14.8-4.1,29.8-7.9,45-10.5c-9.4,3.7-19,6.9-28.7,9.9c-3.2,1-6.4,2-9.7,2.9l0.2-3.8c2.8,1.1,5.5,2.2,8.3,3.4    c3.4,1.5,10.7,4.6,14,6C231.6,315.8,216.7,319,202.4,320.8L202.4,320.8z"/>
	</g>
	<g>
		<path class="st13-offline" d="M250,367.6c5.5-10.9,12.3-22.3,18.7-32.8c0,0,2.4,2.9,2.4,2.9c-6.9,2.8-15.2,5.9-22,8.5    c7.8-13.3,16-26.4,25.1-38.8c-4.2,9.2-8.9,18.2-13.8,27.1c-1.6,2.9-3.2,5.9-4.9,8.8l-2.5-2.9c2.8-1.1,5.5-2.2,8.3-3.3    c3.4-1.3,10.8-4.1,14.2-5.4C267.5,343.7,259,356.5,250,367.6L250,367.6z"/>
	</g>
</g>
<g id="Layer_4">
	<g>
		<g>
			<path d="M29.7,46.6C46.5,24.8,71.5,10.2,99,7.3c29.3-3.1,58.4,6.8,79.9,26.8c1.8,1.6,4.4-1,2.7-2.7C159.3,10.8,129.2,0.3,99,3.5     c-28.5,3-54.5,17.8-72,40.4C25.5,45.8,28.2,48.5,29.7,46.6L29.7,46.6z"/>
		</g>
	</g>
	<g>
		<g>
			<path d="M15.2,73.3c2.1-5.8,4.7-11.3,7.8-16.7c1.2-2.1-2-4-3.2-1.9c-3.2,5.6-5.9,11.5-8.2,17.6C10.7,74.6,14.3,75.6,15.2,73.3     L15.2,73.3z"/>
		</g>
	</g>
	<g>
		<g>
			<path d="M12,84.2c0.9-3.7,2-7.3,3.2-10.9c0.8-2.3-2.8-3.3-3.6-1c-1.3,3.6-2.3,7.2-3.2,10.9C7.8,85.5,11.4,86.6,12,84.2L12,84.2z"/>
		</g>
	</g>
	<g>
		<g>
			<path d="M9.4,103.1c0.1-2.6,0.3-5.1,0.6-7.7c0.3-2.4-3.5-2.4-3.8,0c-0.3,2.5-0.5,5.1-0.6,7.7C5.5,105.5,9.3,105.5,9.4,103.1     L9.4,103.1z"/>
		</g>
	</g>
	<g>
		<g>
			<path d="M11.5,128.6c-0.9-4.1-1.5-8.3-1.9-12.5c-0.2-2.4-4-2.4-3.8,0c0.4,4.5,1.1,9,2,13.5C8.4,131.9,12,130.9,11.5,128.6     L11.5,128.6z"/>
		</g>
	</g>
	<g>
		<g>
			<path d="M75.5,201.9c-32.3-12-56.4-39.7-64-73.4c-0.5-2.4-4.1-1.4-3.6,1c7.8,35,33,63.5,66.6,76     C76.7,206.4,77.7,202.8,75.5,201.9L75.5,201.9z"/>
		</g>
	</g>
	<g>
		<g>
			<path d="M176.3,183.1c-22.9,19.8-53.4,28.4-83.3,23.5c-2.4-0.4-3.4,3.2-1,3.6c31.4,5.1,62.9-3.7,86.9-24.5     C180.7,184.1,178.1,181.5,176.3,183.1L176.3,183.1z"/>
		</g>
	</g>
	<g>
		<g>
			<path d="M209.8,94.2c2.8,23.6-2.3,47-14.9,67.2c-1.3,2.1,2,3.9,3.2,1.9c12.9-20.7,18.3-44.9,15.4-69.1     C213.2,91.8,209.5,91.8,209.8,94.2L209.8,94.2z"/>
		</g>
	</g>
	<g>
		<g>
			<path d="M193.8,51.7c8.5,13.1,13.9,27.6,16,43c0.3,2.4,3.9,1.4,3.6-1c-2.1-15.7-7.7-30.6-16.4-43.9     C195.7,47.8,192.5,49.6,193.8,51.7L193.8,51.7z"/>
		</g>
	</g>
</g>
</svg>