<svg xmlns="http://www.w3.org/2000/svg" xmlns:xlink="http://www.w3.org/1999/xlink" version="1.1" x="0px" y="0px" viewBox="0 0 164.7 195.6" style="enable-background:new 0 0 164.7 195.6;" xml:space="preserve">
<style type="text/css">
	.fruits-st0{fill:#F2B066;stroke:#000000;stroke-width:4;stroke-miterlimit:10;}
	.fruits-st1{fill:#99CE99;stroke:#000000;stroke-width:4;stroke-miterlimit:10;}
	.fruits-st2{fill:#CC3333;stroke:#000000;stroke-width:4;stroke-miterlimit:10;}
	.fruits-st3{fill:#42A842;stroke:#000000;stroke-width:4;stroke-miterlimit:10;}
	.fruits-st4{fill:#A56C21;stroke:#000000;stroke-width:4;stroke-miterlimit:10;}
	.fruits-st5{fill:#F7F23C;stroke:#000000;stroke-width:4;stroke-miterlimit:10;}
	.fruits-st6{fill:#FFC423;stroke:#000000;stroke-width:4;stroke-miterlimit:10;}
	.fruits-st7{fill:none;}
	.fruits-st8{font-family:'ArialMT';}
	.fruits-st9{font-size:76.4843px;}
</style>
<g id="Layer_1">
	<g id="Layer_2_00000163752832179994552610000002276470824611514019_">
		<path class="fruits-st0" d="M46.7,77c0.1-6.7-3.3-10.1-10.4-11.2c-6.2-0.9-12.4-1.7-18.7-2.6c-6.1-0.9-11.1,2.9-11.9,9    c-0.5,4,0.6,5.4,4.5,6c4,0.6,8,0.9,12,1.8c1.6,0.3,5,1.6,4.9,3.6c-0.4,2.8-3.8,3.3-5.8,3c-3.8-0.5-7.4-1.1-11.2-1.6    c-3.6-0.5-4,1.3-3.7,5c0.9,11,1.8,18.8,2.5,29.8c0.4,6.7-0.6,4.9,6.7,6.1c1.3,0.3,5.1,1.2,4.2,4.4c-0.4,3.2-5.7,2.2-6.1,2.2    c-3.8-0.6-4.2-0.2-3.9,3.5c0.7,8.6,1.2,17.3,2,25.9c0.1,1.4,1,3.9,1.8,4.1c0.9,0.2,2.7-1.9,3.1-3.2c6-16.7,11-31.7,16.9-48.4    c0.9-2.5,0.1-4.3-2.8-4.6c-4.7-0.5-12.4-2-13.4-2.2c-1.2-0.4-2-1-2.3-3.6c0-2.8,3.6-2,3.6-2s11.3,1.4,15.5,2c2,0.3,3.3-0.3,4-2.4    c2.4-7.3,5.1-14.5,7.6-21.8C46.6,78.6,46.6,77.4,46.7,77z"/>
		<path class="fruits-st1" d="M58.2,5.5c0.3-2.6-3.7-0.8-5.1-0.1C41.9,11,34,19.6,29.3,31.2c-3.6,9.2-3.9,18.8-3.5,28.5    c0.2,3.8,0.6,4.2,5,3.8C33.2,40.9,57.8,8.2,58.2,5.5z"/>
		<path class="fruits-st1" d="M2.8,6.2c-0.1,1.4,14,20.1,18.5,32.1c0.7-3.7,1.5-6.6,1.8-9.6c0.2-2.3,0.2-5-0.6-7.1C19,13,2.9,4.9,2.8,6.2z"/>
	</g>
	<g id="Layer_4">
		<path class="fruits-st2" d="M65.3,170.2c4.3,1.5,8.5,1.4,12.9-0.1c1.2-0.4,2.7-0.3,3.9,0.1c4.8,1.5,9.5,1.5,14.1-0.5    c15-6.5,25.2-26.2,22-42.2c-2.7-13.2-12.7-19.5-25.5-15.1c-8.7,3-16.7,2.9-25.3,0c-14-4.7-25,3.5-26,18.6c-0.1,1.2,0,2.4,0,3.5    C41.2,149,52.6,165.9,65.3,170.2z"/>
		<path class="fruits-st3" d="M77.5,82.8c-4.7-6-18.5-13-19.2-12.4s-1.3,21.2,4.4,29c4.8,7.8,12.8,10.3,14.4,10    c-0.8-2.7-8.1-14.5-10.8-20.2c-0.6-2.1,0.2-3.9,1-4.1c1.8-1.1,3.5,0.4,4,1.4c3.4,5.1,7.6,12.4,8.9,15    C82.4,95.2,81.8,88.2,77.5,82.8z"/>
		<path class="fruits-st4" d="M99.4,90c0.5-0.6,0.5-2.1,0.1-2.9c-0.7-1.3-1.6-3.4-3.4-4.4c-1.8,0.1-9.8,16.7-12,25.9    C89.4,102.3,94.5,96.2,99.4,90z"/>
	</g>
	<g id="Layer_5">
		<path class="fruits-st5" d="M104.3,56.8c0.8-6.6-0.9-12.5-4.2-18c-5.6-9.2-13.2-16-24.6-16.2c-3.5-0.1-6.6-0.1-9.5-2.3    c-0.8-0.6-2.7-0.8-3.2-0.3c-0.7,0.8-0.7,2.3-0.7,3.5c0,2.3,0.9,5,0.1,7C58.7,38.8,60,46.6,64.1,54c5.7,10.2,13.8,17,26.3,17.2    c2.6,0,5.1,1.4,7.7,2.1c1.2,0.3,1.9,1.4,3.4,0.6c1.4-0.8,1-2.4,1-3.7c0.1-2.3-0.3-4.7,0-7C102.7,61.1,103.7,59,104.3,56.8z"/>
	</g>
	<g id="Layer_3">
		<path d="M77.2,27c6.4,1.2,11.6,4.1,15.2,9.2c0.7,0.9,1.6,1.9-0.5,3.7c-1.4,0.3-2.3-0.1-3-0.9c-3.6-4-7.6-6.9-13.2-7.1    c-1.8-0.1-4.2,0.1-3.7-2.5c0.2-1,1.1-1.5,2.8-2.1C75.3,27.1,76.9,27,77.2,27z"/>
	</g>
</g>

</svg>