<svg xmlns="http://www.w3.org/2000/svg" xmlns:xlink="http://www.w3.org/1999/xlink" version="1.1" id="Layer_1" x="0px" y="0px" viewBox="0 0 167.9 165.4" style="enable-background:new 0 0 167.9 165.4;" xml:space="preserve">
<style type="text/css">
	.st0-company{fill:#D0E7EA;stroke:#000000;stroke-width:4;stroke-miterlimit:10;}
	.st1-company{fill:#FFFFFF;stroke:#000000;stroke-width:4;stroke-miterlimit:10;}
	.st2{fill:#FFC423;stroke:#000000;stroke-width:4;stroke-miterlimit:10;}
	.st3{fill:none;}
	.st4{font-family:'ArialMT';}
	.st5{font-size:57px;}
</style>
<g id="Layer_2_00000045585455442838696110000004701016972243690681_">
	<path class="st0-company" d="M132.4,145.6H14.1c-2.5,0-4.5-2-4.5-4.5V9.1c0-2.5,2-4.5,4.5-4.5h118.3c2.5,0,4.5,2,4.5,4.5v132   C136.9,143.5,134.9,145.6,132.4,145.6z"/>
	<path class="st1-company" d="M89.2,145.7H56.5c-2.3,0-4.2-1.9-4.2-4.2v-30.9c0-2.3,1.9-4.2,4.2-4.2h32.7c2.3,0,4.2,1.9,4.2,4.2v30.9   C93.4,143.8,91.5,145.7,89.2,145.7z"/>
	<path class="st1-company" d="M116.5,85.9c-14.4,0-22.3-18-22.3-18s-7.5,19.3-22.4,19.3c-17-0.4-24.2-19.3-24.2-19.3s-5.7,18-22.4,17.6   C8.6,84.9,4.3,66.1,4.3,63.9V38.2c0-2.2,1.9-3.9,4.1-3.9h130.1c2.3,0,4.1,1.8,4.1,3.9V64C142.7,66.1,137,86.2,116.5,85.9z"/>
</g>



</svg>