<?xml version="1.0" encoding="utf-8"?>
<!-- Generator: Adobe Illustrator 27.0.0, SVG Export Plug-In . SVG Version: 6.00 Build 0)  -->
<svg version="1.1" id="Layer_1" xmlns="http://www.w3.org/2000/svg" xmlns:xlink="http://www.w3.org/1999/xlink" x="0px" y="0px"
	 viewBox="0 0 300.5 311.6" style="enable-background:new 0 0 300.5 311.6;" xml:space="preserve">
<style type="text/css">
	.st0-Mail{display:none;}
	.st1-Mail{fill:#BBE1F2;}
	.st2-Mail{fill-rule:evenodd;clip-rule:evenodd;fill:#FFC423;}
	.st3-Mail{fill:none;stroke:#000000;stroke-width:2.5;stroke-miterlimit:100;}
	.st4-Mail{fill-rule:evenodd;clip-rule:evenodd;fill:#1A1A1A;}
	.st5-Mail{fill:#3BA3EB;}
	.st6-Mail{fill:#1476AD;}
</style>
<g id="Layer_1_00000141422033230181271380000002641908120100321698_" class="st0-Mail">
</g>
<g id="Layer_3">
</g>
<g id="Layer_2_00000034068784558201887920000007863643907693793203_">
	<path class="st1-Mail" d="M151,232.3L6.8,126.5c3-7.9,128-122.7,143.8-123.1S291,124.3,291,124.3S157.7,232.3,151,232.3z"/>
	<g id="Layer_5">
		<g id="Rectangle_3">
			<g>
				<path class="st2-Mail" d="M110.3,76.6h-19c-1,0-1.8,0.8-1.8,1.8v96.2c0,1,0.8,1.8,1.8,1.8h19c1,0,1.8-0.8,1.8-1.8V78.4
					C112,77.4,111.2,76.6,110.3,76.6z"/>
			</g>
			<g>
				<path class="st3-Mail" d="M110.3,76.6h-19c-1,0-1.8,0.8-1.8,1.8v96.2c0,1,0.8,1.8,1.8,1.8h19c1,0,1.8-0.8,1.8-1.8V78.4
					C112,77.4,111.2,76.6,110.3,76.6z"/>
			</g>
		</g>
		<g id="Rectangle_3_00000122708717415471067630000014050778579348335795_">
			<g>
				<path class="st2-Mail" d="M207,76.6h-19c-1,0-1.8,0.8-1.8,1.8v96.2c0,1,0.8,1.8,1.8,1.8h19c1,0,1.8-0.8,1.8-1.8V78.4
					C208.8,77.4,208,76.6,207,76.6z"/>
			</g>
			<g>
				<path class="st3-Mail" d="M207,76.6h-19c-1,0-1.8,0.8-1.8,1.8v96.2c0,1,0.8,1.8,1.8,1.8h19c1,0,1.8-0.8,1.8-1.8V78.4
					C208.8,77.4,208,76.6,207,76.6z"/>
			</g>
		</g>
		<g id="Rectangle_2">
			<g>
				<path class="st2-Mail" d="M223.1,96.2H74.6c-1.3,0-2.4,1.1-2.4,2.4V130c0,1.3,1.1,2.4,2.4,2.4H223c1.3,0,2.4-1.1,2.4-2.4V98.6
					C225.4,97.3,224.4,96.2,223.1,96.2z"/>
			</g>
			<g>
				<path class="st3-Mail" d="M223.1,96.2H74.6c-1.3,0-2.4,1.1-2.4,2.4V130c0,1.3,1.1,2.4,2.4,2.4H223c1.3,0,2.4-1.1,2.4-2.4V98.6
					C225.4,97.3,224.4,96.2,223.1,96.2z"/>
			</g>
		</g>
		<g id="Rectangle_2_00000163782204609905831730000011086137176233811639_">
			<g>
				<path class="st2-Mail" d="M223.7,150.1H75.2c-1.3,0-2.4,1.1-2.4,2.4v29.4c0,1.3,1.1,2.4,2.4,2.4h148.4c1.3,0,2.4-1.1,2.4-2.4v-29.4
					C226,151.1,225,150.1,223.7,150.1z"/>
			</g>
			<g>
				<path class="st3-Mail" d="M223.7,150.1H75.2c-1.3,0-2.4,1.1-2.4,2.4v29.4c0,1.3,1.1,2.4,2.4,2.4h148.4c1.3,0,2.4-1.1,2.4-2.4v-29.4
					C226,151.1,225,150.1,223.7,150.1z"/>
			</g>
		</g>
		<g id="Ellipse_1">
			<g>
				<ellipse class="st4-Mail" cx="197.82" cy="113.74" rx="4.5" ry="4.5"/>
			</g>
		</g>
		<g id="Ellipse_1_00000097468873278718211290000000819264054670002607_">
			<g>
				<ellipse class="st4-Mail" cx="99.88" cy="113.68" rx="4.5" ry="4.5"/>
			</g>
		</g>
		<g id="Ellipse_1_00000090986997538869819260000005557384336511487874_">
			<g>
				<ellipse class="st4-Mail" cx="99.89" cy="167.68" rx="4.5" ry="4.5"/>
			</g>
		</g>
		<g id="Ellipse_1_00000177448129022418461150000007646633197334756512_">
			<g>
				<ellipse class="st4-Mail" cx="197.79" cy="167.69" rx="4.5" ry="4.5"/>
			</g>
		</g>
	</g>
	<path class="st5-Mail" d="M274.7,309.1H24.5c-12.2,0-22.2-10-22.2-22.2V139.1c0-6.9,3.2-13.1,8.2-17.2c10.2,4.5,119.4,98.5,138.9,102.8
		c19.5-4.5,127.1-100.5,136.8-104.6c6.5,3.9,10.8,11,10.8,19.1V287C296.9,299.1,286.9,309.1,274.7,309.1z"/>
</g>
<g id="Layer_4">
	<path class="st6-Mail" d="M274.7,309.1H24.5c-6.7,0-12.7-3-16.8-7.7C24.1,290.7,139.6,220,139.6,220s3.9,3.3,9.8,4.7
		c4.78-1.57,9.77-5.05,9.77-5.05S282.8,296.7,290.5,302.6C286.4,306.6,280.8,309.1,274.7,309.1z"/>
</g>
<g id="Layer_7">
</g>
<g id="Layer_6">
</g>
</svg>
