<svg xmlns="http://www.w3.org/2000/svg" xmlns:xlink="http://www.w3.org/1999/xlink" version="1.1" id="Layer_1" x="0px" y="0px" style="enable-background:new 0 0 45 45;" xml:space="preserve" viewBox="2.6 1.7 39.7 37.5">
<style type="text/css">
	.st0-time8{fill:#B0B4BA;}
	.st1-time8{fill:#DBDEDF;}
	.st2-time8{fill:none;stroke:#4D79C8;stroke-width:4;stroke-miterlimit:10;}
</style>
<g id="Layer_10">
	<g>
		<g>
			<g>
				<path class="st0-time8" d="M14.6,24.8c-0.9,0-2.1,0-3.3,0s-2.3,0-3.2,0c-0.7,0-1.4,0-2,0s-1.4,0-2.3,0L2.6,22c1.1-1.2,2-2.1,2.7-2.9      s1.4-1.5,1.9-2.2l0,0c-0.3,0-0.6,0-1,0s-0.7,0-1,0s-0.7,0-1.1,0s-0.8,0-1.1,0V13c0.8,0,1.7,0,2.7,0s2,0,3,0c0.7,0,1.4,0,2,0      c0.7,0,1.4,0,2.3,0l1.3,2.7c-0.4,0.4-0.9,1-1.5,1.7c-0.6,0.7-1.7,1.9-3.2,3.5V21c0.3,0,0.6,0,1,0s0.7,0,1,0c0.4,0,0.9,0,1.4,0      s1,0,1.5,0L14.6,24.8L14.6,24.8z"/>
			</g>
		</g>
	</g>
	<g>
		<g>
			<g>
				<path class="st1-time8" d="M27.2,13.5c-0.9,0-2.1,0-3.3,0s-2.3,0-3.2,0c-0.7,0-1.4,0-2,0s-1.4,0-2.3,0l-1.2-2.7c1.1-1.2,2-2.1,2.7-2.9      s1.4-1.5,1.9-2.2l0,0c-0.3,0-0.6,0-1,0s-0.7,0-1,0s-0.7,0-1.1,0s-0.8,0-1.1,0v-4c0.8,0,1.7,0,2.7,0s2,0,3,0c0.7,0,1.4,0,2,0      c0.7,0,1.4,0,2.3,0l1.3,2.7c-0.4,0.4-0.9,1-1.5,1.7S23.7,8,22.2,9.6v0.1c0.3,0,0.6,0,1,0s0.7,0,1,0c0.4,0,0.9,0,1.4,0s1,0,1.5,0      v3.8H27.2z"/>
			</g>
		</g>
	</g>
	<g id="Layer_11">
		<path class="st2-time8" d="M40.3,25.9c0,6.2-5.1,11.3-11.3,11.3c-3.1,0-5.9-1.3-8-3.3c3.5-1.4,6.8-2.6,9.9-7.1c2.5-4.9,2.4-7.6,2.5-11.3    C37.4,17.3,40.3,21.3,40.3,25.9z"/>
	</g>
</g>
</svg>